<?xml version="1.0" encoding="utf-8"?>
<!-- Generator: Adobe Illustrator 23.1.1, SVG Export Plug-In . SVG Version: 6.00 Build 0)  -->
<svg version="1.1" id="Layer_1" xmlns="http://www.w3.org/2000/svg" xmlns:xlink="http://www.w3.org/1999/xlink" x="0px" y="0px"
	 viewBox="-200 10 2400 400" style="enable-background:new -50 30 2200 350;" xml:space="preserve">
<style type="text/css">
	.st0{fill:#D89660;}
	.st1{fill:#FFFFFF;}
</style>
<g>
	<path class="st0" d="M1067.3,99c-1-1.7-3.3-1.9-4.6-0.4c-4.6,5.3-11.5,8.6-19,8.3c-0.1,0-0.1,0-0.2,0c-0.6-16.4-6.9-31.4-17.1-42.9
		c0.7-0.9,1.5-1.8,2.4-2.6c4.8-4.5,10.9-6.7,16.9-6.5c1.9,0,3.3-1.9,2.6-3.7c-1.1-2.8-2.7-5.4-4.9-7.7c-3.2-3.4-7.2-5.7-11.5-6.8
		c-1.9-0.5-3.6,1-3.5,3c0.6,6.9-1.9,14-7.2,19.2c-11.3-10.5-26.2-17.2-42.6-18.1c-0.1-1-0.1-2-0.1-3.1c0.2-6.5,3-12.4,7.3-16.6
		c1.4-1.3,1-3.7-0.8-4.5c-2.7-1.2-5.7-1.9-8.9-2c-4.7-0.1-9.1,1.1-12.9,3.3c-1.7,1-1.8,3.3-0.3,4.6c5.2,4.4,8.4,10.9,8.5,18.2
		c-16.7,0.7-31.8,7.3-43.4,17.9c-0.7-0.6-1.4-1.2-2.1-1.9c-4.5-4.7-6.7-10.8-6.6-16.9c0-1.9-2-3.3-3.8-2.6c-2.8,1.1-5.4,2.8-7.7,4.9
		c-3.4,3.2-5.6,7.2-6.7,11.5c-0.5,1.9,1.1,3.6,3,3.5c6.7-0.6,13.6,1.7,18.8,6.6c-10.3,11.5-16.8,26.6-17.5,43.1c-1,0.1-2,0.1-3,0.1
		c-6.5-0.2-12.4-2.9-16.6-7.2c-1.3-1.4-3.7-1-4.5,0.8c-1.2,2.7-1.8,5.7-1.9,8.9c-0.1,4.7,1.1,9.1,3.4,12.9c1,1.7,3.3,1.8,4.6,0.3
		c4.4-5.2,10.9-8.5,18.2-8.6c1,15.9,7.4,30.4,17.4,41.6c-0.7,0.9-1.5,1.8-2.4,2.6c-4.8,4.4-11,6.5-17,6.3c-2-0.1-3.4,1.9-2.7,3.7
		c1.1,2.8,2.7,5.4,4.8,7.7c3.2,3.5,7.1,5.8,11.4,6.9c1.9,0.5,3.7-1,3.5-3c-0.5-6.9,2-14,7.5-19.2c11.3,10.2,26,16.8,42.2,17.8
		c0.2,1.3,0.2,2.6,0.2,4c-0.3,6.5-3.1,12.4-7.5,16.5c-1.4,1.3-1,3.7,0.7,4.5c2.7,1.2,5.7,2,8.9,2.1c4.7,0.2,9.1-1,12.9-3.2
		c1.7-1,1.9-3.3,0.4-4.6c-5.3-4.6-8.5-11.5-8.2-19.1c0-0.1,0-0.2,0-0.2c16.3-0.7,31-7.1,42.5-17.2c1.1,0.8,2.2,1.8,3.2,2.8
		c4.5,4.8,6.6,10.9,6.5,17c-0.1,2,1.9,3.3,3.7,2.7c2.8-1.1,5.4-2.7,7.7-4.8c3.4-3.2,5.7-7.2,6.8-11.4c0.5-1.9-1-3.7-3-3.5
		c-7,0.5-14.2-2-19.3-7.5c-0.1-0.1-0.2-0.2-0.3-0.3c10.2-11.2,16.8-25.7,17.9-41.8c1.3-0.2,2.7-0.3,4.1-0.2
		c6.5,0.2,12.4,3.1,16.6,7.5c1.3,1.4,3.7,1,4.5-0.8c1.2-2.7,1.9-5.7,2-8.9C1070.7,107.2,1069.5,102.7,1067.3,99z M947.5,99.3
		c-7.9,0-14.3-6.4-14.3-14.3s6.4-14.3,14.3-14.3s14.3,6.4,14.3,14.3S955.4,99.3,947.5,99.3z M971.9,119.6c-5.6,0-10.1-4.5-10.1-10.1
		s4.5-10.1,10.1-10.1c5.6,0,10.1,4.5,10.1,10.1C982.1,115.1,977.5,119.6,971.9,119.6z"/>
	<g>
		<path class="st1" d="M757.5,297.1c-3.4-4.2-7.6-6.3-12.7-6.3c-2.2,0-4.3,0.4-6.1,1.2c-1.9,0.8-3.5,1.9-4.9,3.3
			c-1.4,1.4-2.4,3-3.2,4.9c-0.8,1.9-1.2,4-1.2,6.2c0,2.3,0.4,4.4,1.2,6.3c0.8,1.9,1.9,3.6,3.2,5c1.4,1.4,3,2.5,4.9,3.3
			c1.9,0.8,3.9,1.2,6,1.2c4.7,0,9-2,12.8-6v17.5l-1.5,0.5c-2.3,0.8-4.4,1.4-6.3,1.8c-2,0.4-3.9,0.6-5.8,0.6c-3.9,0-7.7-0.7-11.3-2.2
			s-6.8-3.6-9.5-6.3c-2.7-2.7-4.9-5.9-6.6-9.6c-1.7-3.7-2.5-7.7-2.5-12.1c0-4.4,0.8-8.4,2.5-12c1.6-3.6,3.8-6.8,6.6-9.4
			c2.8-2.6,5.9-4.7,9.5-6.2c3.6-1.5,7.4-2.2,11.4-2.2c2.3,0,4.5,0.2,6.7,0.7s4.5,1.2,6.9,2.2L757.5,297.1L757.5,297.1z"/>
		<path class="st1" d="M764.1,312.6c0-2.9,0.6-5.5,1.7-8c1.2-2.5,2.8-4.6,4.8-6.5c2.1-1.8,4.5-3.3,7.4-4.3c2.8-1.1,5.9-1.6,9.3-1.6
			c3.3,0,6.4,0.5,9.2,1.5s5.3,2.5,7.4,4.3c2.1,1.8,3.7,4,4.9,6.6c1.2,2.5,1.7,5.3,1.7,8.4c0,3.1-0.6,5.9-1.8,8.4s-2.8,4.7-4.9,6.6
			c-2.1,1.8-4.5,3.3-7.4,4.3s-6,1.5-9.4,1.5c-3.3,0-6.4-0.5-9.2-1.5c-2.8-1-5.2-2.4-7.3-4.3c-2-1.9-3.6-4.1-4.8-6.7
			C764.7,318.7,764.1,315.8,764.1,312.6z M778.5,312.8c0,1.3,0.2,2.5,0.7,3.6s1.1,2,1.9,2.8c0.8,0.8,1.7,1.4,2.8,1.9
			s2.2,0.7,3.4,0.7s2.3-0.2,3.4-0.7c1.1-0.5,2-1.1,2.8-1.9c0.8-0.8,1.4-1.7,1.9-2.8s0.7-2.2,0.7-3.5c0-1.2-0.2-2.4-0.7-3.4
			c-0.5-1.1-1.1-2-1.9-2.8c-0.8-0.8-1.7-1.4-2.8-1.9s-2.2-0.7-3.4-0.7s-2.4,0.2-3.4,0.7c-1.1,0.4-2,1.1-2.8,1.9
			c-0.8,0.8-1.4,1.7-1.9,2.8C778.7,310.4,778.5,311.6,778.5,312.8z"/>
		<path class="st1" d="M829.3,295l9.2,19.8l9.4-19.8h15.2L843,333.7h-9.1l-20-38.7H829.3z"/>
		<path class="st1" d="M868.8,280.2c0-1.1,0.2-2.1,0.6-3c0.4-0.9,1-1.7,1.7-2.4c0.7-0.7,1.5-1.3,2.5-1.7c0.9-0.4,1.9-0.6,3-0.6
			c1.1,0,2,0.2,3,0.6c0.9,0.4,1.7,1,2.5,1.7c0.7,0.7,1.3,1.5,1.7,2.4c0.4,0.9,0.6,1.9,0.6,3s-0.2,2-0.6,3c-0.4,0.9-1,1.8-1.7,2.4
			c-0.7,0.7-1.5,1.3-2.5,1.7c-0.9,0.4-1.9,0.6-3,0.6c-1.1,0-2.1-0.2-3-0.6c-0.9-0.4-1.7-1-2.5-1.7c-0.7-0.7-1.3-1.5-1.7-2.4
			C869,282.2,868.8,281.2,868.8,280.2z M883.4,295v38.7h-13.7V295H883.4z"/>
		<path class="st1" d="M936.4,262.6h-13.7v31.2c-0.1,0-0.2-0.1-0.3-0.2c-2.8-1-5.9-1.5-9.2-1.5c-3.4,0-6.5,0.5-9.3,1.6
			c-2.8,1.1-5.3,2.5-7.4,4.3s-3.7,4-4.8,6.5c-1.2,2.5-1.7,5.2-1.7,8c0,3.2,0.6,6,1.7,8.6c1.2,2.6,2.8,4.8,4.8,6.7s4.5,3.3,7.3,4.3
			s5.9,1.5,9.2,1.5c3.4,0,6.5-0.5,9.4-1.5c2.9-1,5.4-2.4,7.4-4.3c2.1-1.8,3.7-4,4.9-6.6c1.2-2.5,1.8-5.3,1.8-8.4l0,0l0,0
			L936.4,262.6L936.4,262.6z M921.3,316.4c-0.5,1.1-1.1,2-1.9,2.8c-0.8,0.8-1.7,1.4-2.8,1.9s-2.2,0.7-3.4,0.7s-2.4-0.2-3.4-0.7
			c-1.1-0.5-2-1.1-2.8-1.9c-0.8-0.8-1.4-1.7-1.9-2.8s-0.7-2.3-0.7-3.6c0-1.2,0.2-2.3,0.7-3.4c0.5-1.1,1.1-2,1.9-2.8
			c0.8-0.8,1.7-1.4,2.8-1.9s2.2-0.7,3.4-0.7s2.3,0.2,3.4,0.7c1.1,0.4,2,1.1,2.8,1.9c0.8,0.8,1.4,1.8,1.9,2.8
			c0.5,1.1,0.7,2.2,0.7,3.4C922,314.1,921.7,315.3,921.3,316.4z"/>
		<path class="st1" d="M1026.8,262.6h-13.7v31.2c-0.1,0-0.2-0.1-0.3-0.2c-2.8-1-5.9-1.5-9.2-1.5c-3.4,0-6.5,0.5-9.3,1.6
			s-5.3,2.5-7.4,4.3c-2.1,1.8-3.7,4-4.8,6.5c-1.2,2.5-1.7,5.2-1.7,8c0,3.2,0.6,6,1.7,8.6c1.2,2.6,2.8,4.8,4.8,6.7s4.5,3.3,7.3,4.3
			s5.9,1.5,9.2,1.5c3.4,0,6.5-0.5,9.4-1.5s5.4-2.4,7.4-4.3c2.1-1.8,3.7-4,4.9-6.6c1.2-2.5,1.8-5.3,1.8-8.4l0,0l0,0v-50.2H1026.8z
			 M1011.7,316.4c-0.5,1.1-1.1,2-1.9,2.8c-0.8,0.8-1.7,1.4-2.8,1.9s-2.2,0.7-3.4,0.7s-2.4-0.2-3.4-0.7c-1.1-0.5-2-1.1-2.8-1.9
			c-0.8-0.8-1.4-1.7-1.9-2.8s-0.7-2.3-0.7-3.6c0-1.2,0.2-2.3,0.7-3.4c0.5-1.1,1.1-2,1.9-2.8c0.8-0.8,1.7-1.4,2.8-1.9
			s2.2-0.7,3.4-0.7s2.3,0.2,3.4,0.7c1.1,0.4,2,1.1,2.8,1.9c0.8,0.8,1.4,1.8,1.9,2.8c0.5,1.1,0.7,2.2,0.7,3.4
			C1012.4,314.1,1012.1,315.3,1011.7,316.4z"/>
		<g>
			<path class="st1" d="M1047.2,315.3c0,5.9,2.8,8.8,8.3,8.8c3,0,5.2-1.2,6.7-3.6h13.2c-2.7,8.9-9.3,13.3-20,13.3
				c-3.3,0-6.3-0.5-9-1.5s-5-2.4-7-4.2c-1.9-1.8-3.4-4-4.5-6.5s-1.6-5.3-1.6-8.4c0-3.2,0.5-6.1,1.5-8.7c1-2.6,2.4-4.8,4.3-6.6
				c1.9-1.8,4.1-3.2,6.8-4.2c2.6-1,5.6-1.5,8.9-1.5s6.2,0.5,8.8,1.5c2.6,1,4.8,2.4,6.6,4.3c1.8,1.9,3.2,4.1,4.2,6.8s1.4,5.7,1.4,9.1
				v1.4L1047.2,315.3L1047.2,315.3z M1063.2,307.3c-0.5-1.9-1.4-3.4-2.8-4.6c-1.4-1.2-3.1-1.7-5.1-1.7c-2.1,0-3.8,0.6-5.2,1.7
				c-1.3,1.1-2.2,2.7-2.5,4.7h15.6V307.3z"/>
			<path class="st1" d="M1113.6,293.6h13.7v38.7h-13.7V328c-2.9,3.7-6.9,5.5-11.8,5.5c-2.8,0-5.4-0.5-7.8-1.5
				c-2.4-1-4.4-2.5-6.2-4.3c-1.8-1.9-3.1-4-4.1-6.6c-1-2.5-1.5-5.3-1.5-8.2c0-2.8,0.5-5.4,1.4-7.9c1-2.5,2.3-4.7,4-6.5
				c1.7-1.9,3.7-3.3,6.1-4.4c2.4-1.1,5-1.6,7.8-1.6c4.8,0,8.8,1.7,12,5.1L1113.6,293.6L1113.6,293.6z M1096.3,312.9
				c0,1.3,0.2,2.4,0.7,3.5s1.1,2,1.8,2.8c0.8,0.8,1.7,1.4,2.8,1.9s2.3,0.7,3.5,0.7s2.4-0.2,3.4-0.7c1.1-0.5,2-1.1,2.8-1.9
				c0.8-0.8,1.4-1.7,1.9-2.8s0.7-2.2,0.7-3.4s-0.2-2.4-0.7-3.4c-0.5-1.1-1.1-2-1.9-2.8s-1.7-1.4-2.8-1.9s-2.2-0.7-3.4-0.7
				c-1.3,0-2.4,0.2-3.5,0.7s-2,1.1-2.8,1.9c-0.8,0.8-1.4,1.7-1.8,2.8C1096.6,310.5,1096.3,311.6,1096.3,312.9z"/>
			<path class="st1" d="M1151.8,306.4v27.3h-13.7v-27.3h-4.5V295h4.5v-11.6h13.7V295h7.8v11.4H1151.8z"/>
			<path class="st1" d="M1166.4,270.9h13.7v28.8c1.9-2.3,3.7-3.8,5.7-4.6c1.9-0.8,4.2-1.2,6.7-1.2c4.9,0,8.6,1.3,11.1,4
				s3.7,6.3,3.7,10.9v24.6h-13.7V314c0-2-0.2-3.5-0.5-4.8c-0.3-1.2-0.8-2.1-1.5-2.8c-1.2-1.1-2.7-1.6-4.4-1.6
				c-2.3,0-4.1,0.7-5.3,2.1c-1.2,1.4-1.8,3.4-1.8,5.9v20.7h-13.7V270.9z"/>
			<path class="st1" d="M1242.2,303.6c-2.5-1.3-5-2-7.4-2c-1.3,0-2.3,0.3-3.1,0.8c-0.8,0.5-1.2,1.2-1.2,2c0,0.5,0.1,0.8,0.2,1.1
				c0.1,0.3,0.4,0.5,0.8,0.8c0.4,0.3,1.1,0.5,1.9,0.7c0.8,0.2,1.9,0.5,3.3,0.8c3.8,0.8,6.6,2.1,8.5,4c1.9,1.9,2.8,4.4,2.8,7.4
				c0,2.3-0.5,4.3-1.4,6.1s-2.2,3.3-3.8,4.6c-1.6,1.2-3.5,2.2-5.8,2.9s-4.8,1-7.5,1c-5.2,0-10.4-1.5-15.5-4.5l5-9.7
				c3.8,2.6,7.4,3.9,10.9,3.9c1.3,0,2.3-0.3,3.1-0.8c0.8-0.6,1.2-1.3,1.2-2.1c0-0.5-0.1-0.9-0.2-1.2c-0.1-0.3-0.4-0.6-0.8-0.9
				c-0.4-0.3-1-0.5-1.8-0.8c-0.8-0.2-1.8-0.5-3.1-0.7c-4.2-0.9-7.2-2.1-8.9-3.8s-2.5-4-2.5-7c0-2.2,0.4-4.1,1.2-5.8
				c0.8-1.7,2-3.2,3.5-4.4s3.3-2.1,5.5-2.8c2.1-0.7,4.5-1,7.1-1c4.3,0,8.4,0.8,12.4,2.5L1242.2,303.6z"/>
		</g>
		<circle class="st1" cx="958.3" cy="312.9" r="8.8"/>
	</g>
</g>
</svg>
